<svg fill="none" height="36" viewBox="0 0 36 36" width="36" xmlns="http://www.w3.org/2000/svg">
  <circle cx="18" cy="18" r="14.5" stroke="#fff" />
  <circle cx="18" cy="18" r="17.5" stroke="#fff" />
  <circle cx="18" cy="18" fill="#fff" r="10" />
  <g fill="#203dac">
    <path
      d="m12.5011 18c.8284 0 1.4998-.6716 1.4995-1.5s-.6722-1.5-1.5006-1.5-1.4997.6716-1.4994 1.5.6721 1.5 1.5005 1.5z" />
    <path
      d="m23.5011 18c.8284 0 1.4998-.6716 1.4995-1.5s-.6722-1.5-1.5006-1.5-1.4997.6716-1.4994 1.5.6721 1.5 1.5005 1.5z" />
    <path clip-rule="evenodd"
      d="m15 18c0 1.6569 1.3431 3 3 3s3-1.3431 3-3h-1.5c0 .8284-.6716 1.5-1.5 1.5s-1.5-.6716-1.5-1.5z"
      fill-rule="evenodd" />
  </g>
</svg>
